<svg width="35" height="35" fill="none" xmlns="http://www.w3.org/2000/svg"><path d="M0 17.5C0 7.85 7.85 0 17.5 0S35 7.85 35 17.5 27.15 35 17.5 35c-5.474 0-10.53-2.49-13.872-6.828a1.275 1.275 0 01.23-1.785 1.276 1.276 0 011.788.23A14.85 14.85 0 0017.5 32.456c8.246 0 14.956-6.707 14.956-14.955 0-8.246-6.71-14.954-14.956-14.954-8.246 0-14.956 6.708-14.956 14.954 0 .765.058 1.53.172 2.273a1.274 1.274 0 01-1.066 1.45A1.264 1.264 0 01.2 20.157 17.52 17.52 0 010 17.5zm14.046 7.001a1.31 1.31 0 01.003-1.855l5.168-5.145-5.168-5.145a1.313 1.313 0 011.854-1.86l6.1 6.076a1.309 1.309 0 010 1.859l-6.1 6.074a1.311 1.311 0 01-1.857-.004z" fill="#8FAEE6"/></svg>