<svg width="70" height="71" fill="none" xmlns="http://www.w3.org/2000/svg"><path d="M50.257.626C62.066.626 70 8.864 70 21.126v8.245a2.438 2.438 0 01-2.443 2.428 2.438 2.438 0 01-2.443-2.428v-8.244c0-9.508-5.831-15.645-14.858-15.645H19.745c-9.027 0-14.861 6.137-14.861 15.645V49.7c0 9.508 5.834 15.644 14.86 15.644h30.51c9.026 0 14.861-6.136 14.861-15.644v-3.774c-.532-.438-1.075-.908-1.624-1.381-3.85-3.309-7.823-6.725-12.166-5.726-3.035.699-4.728 3.186-6.688 6.063-1.691 2.484-3.441 5.051-6.266 6.79-4.217 2.596-8.669.662-11.924-.75l-.539-.234c-4.053-1.76-6.776-1.405-9.39 1.214a2.446 2.446 0 01-3.451.014 2.421 2.421 0 01-.014-3.433c4.063-4.07 8.904-4.805 14.805-2.251l.549.243c3.234 1.406 5.495 2.244 7.395 1.068 1.936-1.186 3.322-3.224 4.792-5.385 2.215-3.249 4.725-6.94 9.625-8.07 6.762-1.566 12.141 3.068 16.468 6.783.818.706 1.616 1.395 2.393 2.01.582.464.918 1.16.918 1.897L70 49.7c0 12.263-7.938 20.5-19.747 20.5h-30.51C7.936 70.202 0 61.965 0 49.702V21.126C0 8.864 7.934.627 19.744.627h30.513zm-26.27 14.688c4.94 0 8.954 3.993 8.954 8.898 0 4.91-4.015 8.903-8.953 8.903-4.939 0-8.953-3.994-8.953-8.903 0-4.905 4.014-8.898 8.953-8.898zm0 4.856c-2.243 0-4.07 1.813-4.07 4.042 0 2.234 1.827 4.046 4.07 4.046 2.248 0 4.071-1.812 4.071-4.046 0-2.23-1.823-4.042-4.07-4.042z" fill="#8FAEE6"/></svg>