<svg width="70" height="71" fill="none" xmlns="http://www.w3.org/2000/svg"><path d="M48.136.632C61.565.632 70 8.952 70 22.384v8.938a2.64 2.64 0 01-2.646 2.63h-.031v-.063a2.668 2.668 0 01-2.678-2.655v-8.85c0-10.62-5.845-16.43-16.499-16.43h-26.25c-10.661 0-16.541 5.845-16.541 16.43v26.091c0 10.555 5.88 16.4 16.53 16.4h26.25c10.651 0 16.5-5.845 16.5-16.4a2.67 2.67 0 012.677-2.66 2.67 2.67 0 012.678 2.66c.01 13.411-8.362 21.732-21.844 21.732h-26.26C8.372 70.207 0 61.887 0 48.486V22.395C0 8.953 8.372.632 21.886.632h26.25zm-2.532 24.687a2.637 2.637 0 013.713 0 2.599 2.599 0 010 3.69L32.703 45.525a2.645 2.645 0 01-3.714 0l-8.305-8.259a2.599 2.599 0 010-3.691 2.637 2.637 0 013.713 0l6.45 6.415 14.757-14.67z" fill="#8FAEE6"/></svg>