<svg width="70" height="71" fill="none" xmlns="http://www.w3.org/2000/svg"><path d="M64.958 24.253a2.557 2.557 0 012.536 2.546v22.517c0 12.885-8.104 20.891-21.096 20.891h-10.33a2.588 2.588 0 01-2.6-2.546 2.619 2.619 0 012.6-2.577h10.33c10.239 0 15.9-5.583 15.992-15.768V26.8a2.557 2.557 0 012.568-2.546zM43.83 3.331a2.587 2.587 0 012.567 2.577 2.54 2.54 0 01-.762 1.812 2.579 2.579 0 01-1.836.734H21.065c-10.239 0-15.9 5.614-15.9 15.8v25.062c0 10.185 5.661 15.768 15.9 15.768a2.619 2.619 0 012.598 2.577 2.588 2.588 0 01-2.598 2.546C8.073 70.207 0 62.201 0 49.317V24.252C0 11.338 8.073 3.331 21.065 3.331H43.83zm3.911 23.302a2.585 2.585 0 013.012.085 2.532 2.532 0 01.686 3.241l-9.898 12.67c-.433.53-1.051.88-1.732.981a2.614 2.614 0 01-1.887-.552l-9.496-7.393-8.537 11.013a2.583 2.583 0 01-3.62.521 2.563 2.563 0 01-.464-3.589L25.92 30.542a2.614 2.614 0 013.65-.46l9.497 7.393 8.351-10.584.323-.258zm9.662-25.306a9.15 9.15 0 019.921 1.936 8.965 8.965 0 011.986 9.832c-1.406 3.374-4.724 5.575-8.405 5.575-5.01 0-9.077-4.02-9.094-8.988l.02-.64a9.025 9.025 0 015.572-7.715zm3.502 4.459c-2.17 0-3.929 1.744-3.929 3.896 0 2.151 1.76 3.896 3.929 3.896 2.17 0 3.928-1.745 3.928-3.896 0-2.152-1.759-3.896-3.928-3.896z" fill="#8FAEE6"/></svg>