<svg width="70" height="71" fill="none" xmlns="http://www.w3.org/2000/svg"><path d="M9.78 50.008a2.618 2.618 0 012.625 2.61c0 2.898 2.37 5.254 5.288 5.254h3.598a10.53 10.53 0 017.427 3.049l2.524 2.512a5.289 5.289 0 003.755 1.556c1.435.055 2.751-.547 3.752-1.552a2.643 2.643 0 013.714-.01 2.607 2.607 0 01.007 3.695 10.539 10.539 0 01-7.473 3.08c-2.688 0-5.38-1.013-7.43-3.042l-2.555-2.54a5.298 5.298 0 00-3.728-1.528h-3.59c-5.81 0-10.54-4.698-10.54-10.474a2.62 2.62 0 012.626-2.61zM52.303 7.725c5.81 0 10.539 4.698 10.539 10.478v3.577a5.235 5.235 0 001.54 3.706l2.513 2.5a10.376 10.376 0 013.104 7.394 10.382 10.382 0 01-3.066 7.42l-2.555 2.54a5.291 5.291 0 00-1.536 3.702v3.574c0 5.777-4.729 10.478-10.539 10.478a2.618 2.618 0 01-2.625-2.61c0-1.44 1.176-2.61 2.625-2.61 2.92 0 5.289-2.36 5.289-5.258v-3.577a10.371 10.371 0 013.07-7.385l2.52-2.509a5.23 5.23 0 001.567-3.751 5.215 5.215 0 00-1.56-3.713l-2.524-2.51a10.404 10.404 0 01-3.073-7.387v-3.581c0-2.902-2.37-5.258-5.289-5.258a2.618 2.618 0 01-2.625-2.61c0-1.44 1.176-2.61 2.625-2.61zm-8.31 33.616a3.031 3.031 0 013.038 3.02 3.031 3.031 0 01-3.038 3.021 3.029 3.029 0 01-3.038-3.02 3.029 3.029 0 013.038-3.021zm-1.855-16.722a2.632 2.632 0 013.71 0 2.6 2.6 0 010 3.692L27.862 46.198a2.637 2.637 0 01-1.859.762 2.623 2.623 0 01-1.855-.762 2.6 2.6 0 010-3.692l17.99-17.887zM27.532 3.695c3.955-3.936 10.36-4.11 14.49-.386.14.104.28.209.42.348.455.487.735 1.113.735 1.81 0 1.461-1.19 2.61-2.625 2.61-.7 0-1.33-.279-1.785-.697l-.07-.066c-2.1-1.987-5.425-1.952-7.455.066l-2.52 2.506a10.435 10.435 0 01-7.42 3.062h-3.605c-2.905 0-5.285 2.367-5.285 5.255v3.584c0 2.788-1.085 5.398-3.08 7.378l-2.52 2.509c-2.065 2.084-2.065 5.425 0 7.478 1.015 1.01 1.015 2.645 0 3.692-.49.484-1.19.762-1.855.762s-1.33-.243-1.855-.762c-4.13-4.071-4.13-10.721-.035-14.828l2.555-2.54a5.2 5.2 0 001.54-3.689v-3.584c0-5.777 4.725-10.475 10.535-10.475h3.605c1.4 0 2.73-.553 3.71-1.53l2.52-2.503zM25.972 23.5a3.031 3.031 0 013.038 3.02c0 1.667-1.362 3.018-3.038 3.018a3.028 3.028 0 01-3.038-3.018 3.031 3.031 0 013.038-3.02z" fill="#8FAEE6"/></svg>