<svg width="60" height="71" fill="none" xmlns="http://www.w3.org/2000/svg"><path d="M38.61.632c.074 0 .134.035.204.042h.721c.718 0 1.405.29 1.904.809L59.265 19.96c.471.49.735 1.142.735 1.822v32.574c0 8.738-7.069 15.851-15.764 15.851H16.13C6.931 70.207 0 63.392 0 54.357V45.58a2.634 2.634 0 012.639-2.627 2.634 2.634 0 012.639 2.627v8.776c0 6.14 4.564 10.598 10.852 10.598h28.107c5.784 0 10.485-4.756 10.485-10.598v-31.52L41.249 8.872v4.581c0 3.517 2.875 6.381 6.408 6.389a2.631 2.631 0 012.632 2.633 2.632 2.632 0 01-2.64 2.62c-6.439-.014-11.678-5.236-11.678-11.642V5.927H16.13c-5.884 0-10.852 4.777-10.852 10.433V31.3a2.634 2.634 0 01-2.639 2.628A2.634 2.634 0 010 31.3V16.36C0 7.856 7.386.673 16.13.673h22.276c.074-.007.134-.042.204-.042zm-9.254 27.017a2.634 2.634 0 012.64 2.627v5.957h5.984a2.634 2.634 0 012.64 2.627 2.634 2.634 0 01-2.64 2.627h-5.985v5.953a2.634 2.634 0 01-2.639 2.627 2.634 2.634 0 01-2.639-2.627v-5.953h-5.982a2.634 2.634 0 01-2.639-2.627 2.634 2.634 0 012.64-2.627h5.981v-5.957a2.634 2.634 0 012.64-2.627z" fill="#8FAEE6"/></svg>