<svg width="60" height="71" fill="none" xmlns="http://www.w3.org/2000/svg"><path d="M27.828.976a6.921 6.921 0 014.344 0l23.444 7.886C58.24 9.745 60 12.125 60 14.79v23.102c0 7.002-2.64 13.782-7.431 19.073-2.194 2.425-5.009 4.509-8.604 6.373l-12.672 6.558a2.801 2.801 0 01-1.271.306c-.436 0-.872-.105-1.268-.306l-12.697-6.561c-3.603-1.868-6.421-3.952-8.611-6.366C2.648 51.67 0 44.887 0 37.878c0-1.413 1.199-2.56 2.673-2.56 1.475 0 2.673 1.147 2.673 2.56 0 5.781 2.18 11.368 6.135 15.737 1.761 1.945 4.09 3.65 7.115 5.215l11.426 5.903 11.4-5.9c3.019-1.562 5.347-3.266 7.112-5.218 3.948-4.365 6.123-9.945 6.123-15.723V14.789c0-.493-.326-.932-.81-1.095L30.403 5.808a1.278 1.278 0 00-.806 0l-23.44 7.886c-.484.163-.81.601-.81 1.095v6.61c0 1.416-1.2 2.564-2.674 2.564S0 22.815 0 21.399v-6.61c0-2.664 1.765-5.044 4.387-5.927L27.828.976zM39.474 25.81a2.756 2.756 0 013.777 0 2.484 2.484 0 010 3.618L29.37 42.725c-.502.48-1.18.75-1.89.75a2.726 2.726 0 01-1.888-.75l-6.74-6.457a2.484 2.484 0 010-3.618 2.749 2.749 0 013.777 0l4.852 4.644 11.993-11.483z" fill="#8FAEE6"/></svg>