<svg width="20" height="20" fill="none" xmlns="http://www.w3.org/2000/svg"><path fill-rule="evenodd" clip-rule="evenodd" d="M20 10.101c0 5.398-4.477 9.775-10 9.775-5.522 0-10-4.377-10-9.775C0 4.703 4.478.326 10 .326c5.523 0 10 4.377 10 9.775zm-9.642-2.559c-.972.395-2.916 1.214-5.831 2.456-.474.184-.722.364-.744.54-.039.298.343.415.861.574l.22.068c.51.162 1.197.352 1.554.36.324.006.685-.124 1.085-.391 2.723-1.798 4.129-2.707 4.217-2.726.063-.014.15-.032.207.02.059.05.053.146.047.172-.038.157-1.533 1.517-2.308 2.22-.242.22-.413.375-.448.411-.078.08-.158.155-.235.228-.475.446-.83.782.02 1.329.409.263.735.48 1.061.697.356.237.711.474 1.171.768.117.075.228.153.338.229.414.289.786.548 1.246.507.267-.024.543-.27.683-1.002.331-1.732.983-5.482 1.134-7.028a1.709 1.709 0 00-.017-.385.41.41 0 00-.143-.265c-.12-.095-.304-.115-.388-.114-.375.007-.952.203-3.73 1.332z" fill="#3E4A70"/></svg>