<svg width="21" height="20" fill="none" xmlns="http://www.w3.org/2000/svg"><path d="M18.555 4.847C15.555.326 9.43-1.02 4.68 1.792c-4.625 2.81-6.125 8.92-3.125 13.441l.25.367-1 3.665 3.75-.977.375.244c1.625.855 3.375 1.344 5.125 1.344 1.875 0 3.75-.489 5.375-1.466 4.625-2.933 6-8.92 3.125-13.563zm-2.625 9.408c-.5.734-1.125 1.222-2 1.345-.5 0-1.125.244-3.625-.734C8.18 13.89 6.43 12.3 5.18 10.467c-.75-.855-1.125-1.955-1.25-3.054 0-.978.375-1.833 1-2.444.25-.245.5-.367.75-.367h.625c.25 0 .5 0 .625.49.25.61.875 2.076.875 2.199a.365.365 0 010 .488c.125.245 0 .489-.125.611s-.25.367-.375.489c-.25.122-.375.367-.25.611.5.733 1.125 1.466 1.75 2.077.75.611 1.5 1.1 2.375 1.466.25.123.5.123.625-.122.125-.244.75-.855 1-1.1.25-.244.375-.244.625-.122l2 .978c.25.122.5.244.625.367.125.366.125.855-.125 1.221z" fill="#3E4A70"/></svg>